<svg width="20" height="15" fill="none" xmlns="http://www.w3.org/2000/svg"><path fill-rule="evenodd" clip-rule="evenodd" d="M8.07 6.84s1.9-.15 1.9-2.5C9.96 2 8.41.84 6.44.84H0v13.14h6.45s3.95.13 3.95-3.88c0 0 .17-3.26-2.33-3.26Zm2.82 2.4c0-.04 0-5.05 4.76-5.05 5.02 0 4.32 5.7 4.32 5.7h-6.43c0 2.43 2.18 2.28 2.18 2.28 2.07 0 2-1.41 2-1.41h2.17c0 3.75-4.24 3.5-4.24 3.5-5.09 0-4.76-5.03-4.76-5.03Zm4.8-3.13c-1.9 0-2.17 2.02-2.17 2.02h4.07s.03-2.02-1.9-2.02ZM6.46 3.18h-3.6V6.1h3.38c.59 0 1.1-.2 1.1-1.56 0-1.37-.88-1.37-.88-1.37Zm-.18 8.47H2.84V8.13h3.61s1.31-.01 1.3 1.81c0 1.53-.96 1.7-1.48 1.7Zm6.71-8.41V1.62h5.12v1.62h-5.12Z" fill="#5A5A5A"/></svg>