<svg width="20" height="21" fill="none" xmlns="http://www.w3.org/2000/svg"><path fill-rule="evenodd" clip-rule="evenodd" d="M6.25.15h7.5A6.28 6.28 0 0 1 20 6.46v7.58c0 3.49-2.8 6.31-6.25 6.31h-7.5A6.28 6.28 0 0 1 0 14.04V6.46C0 2.98 2.8.16 6.25.16Zm7.5 18.31a4.4 4.4 0 0 0 4.38-4.42V6.46a4.4 4.4 0 0 0-4.38-4.41h-7.5a4.4 4.4 0 0 0-4.38 4.41v7.58a4.4 4.4 0 0 0 4.38 4.42h7.5Z" fill="#666"/><path fill-rule="evenodd" clip-rule="evenodd" d="M5 10.25a5.03 5.03 0 0 1 5-5.05c2.76 0 5 2.26 5 5.05a5.03 5.03 0 0 1-5 5.05c-2.76 0-5-2.26-5-5.05Zm1.88 0c0 1.74 1.4 3.16 3.12 3.16a3.15 3.15 0 0 0 3.13-3.16c0-1.74-1.4-3.15-3.13-3.15a3.14 3.14 0 0 0-3.13 3.15Z" fill="#5A5A5A"/><path d="M15 5.2a1 1 0 0 0 1-1 1 1 0 0 0-1-1.02 1 1 0 0 0-1 1.01 1 1 0 0 0 1 1.01Z" fill="#5A5A5A"/></svg>