<svg width="15" height="21" fill="none" xmlns="http://www.w3.org/2000/svg"><path d="M13.05 2.82A7.1 7.1 0 0 0 7.94.75 7.83 7.83 0 0 0 2 3.17a7.37 7.37 0 0 0-2 4.96c0 2.25.89 3.98 2.38 4.62.1.04.2.06.3.06.31 0 .56-.21.64-.56l.22-.91c.11-.42.02-.63-.21-.92a3.05 3.05 0 0 1-.63-2c0-2.47 1.73-5.1 4.94-5.1 2.55 0 4.13 1.54 4.13 4.01 0 1.56-.31 3-.89 4.06-.4.74-1.1 1.62-2.18 1.62-.47 0-.89-.2-1.15-.56a1.47 1.47 0 0 1-.24-1.21c.12-.51.27-1.04.42-1.56.28-.94.53-1.82.53-2.53 0-1.2-.7-2.02-1.74-2.02-1.33 0-2.37 1.43-2.37 3.25 0 .9.22 1.56.33 1.82l-1.35 6.05c-.11.5-.77 4.37.32 4.68 1.22.34 2.31-3.43 2.42-3.86.1-.35.4-1.66.6-2.46.59.6 1.54 1 2.46 1a5.4 5.4 0 0 0 4.41-2.33A9.76 9.76 0 0 0 15 7.55a6.8 6.8 0 0 0-1.95-4.73Z" fill="#5A5A5A"/></svg>