<svg width="20" height="21" fill="none" xmlns="http://www.w3.org/2000/svg"><path fill-rule="evenodd" clip-rule="evenodd" d="M10 .44C4.49.44 0 4.98 0 10.54c0 5.58 4.49 10.1 10 10.1s10-4.52 10-10.1C20 4.99 15.51.45 10 .45Zm6.58 4.77a8.54 8.54 0 0 1 1.87 5.2c-.38-.07-2-.38-3.91-.38-.62 0-1.27.03-1.93.12a29.94 29.94 0 0 0-.7-1.6 11.52 11.52 0 0 0 4.67-3.34Zm-1.01-1.06a8.36 8.36 0 0 0-7.47-1.9c.34.46 1.78 2.48 3.1 4.92 2.85-1.09 4.13-2.7 4.37-3.02Zm-9.2-1.3c.3.4 1.74 2.45 3.1 4.87a31.64 31.64 0 0 1-7.64 1.03h-.09a8.55 8.55 0 0 1 4.63-5.9Zm-4.82 7.5v.2c0 2.18.8 4.16 2.13 5.66.36-.6 2.68-4.25 6.9-5.62l.28-.09c-.2-.46-.42-.91-.65-1.36a31.3 31.3 0 0 1-8.43 1.2h-.23ZM10 19.09a8.35 8.35 0 0 1-5.15-1.77c.24-.48 1.99-3.67 6.62-5.3a35.87 35.87 0 0 1 1.8 6.4c-1.01.44-2.11.67-3.27.67Zm3.17-7.5a37.67 37.67 0 0 1 1.62 6 8.56 8.56 0 0 0 3.54-5.63 12.43 12.43 0 0 0-5.16-.36Z" fill="#5A5A5A"/></svg>