<svg width="20" height="18" fill="none" xmlns="http://www.w3.org/2000/svg"><path d="M20 2.62c-.74.34-1.53.57-2.36.67a4.23 4.23 0 0 0 1.8-2.35c-.79.49-1.66.84-2.6 1.03a4.04 4.04 0 0 0-3-1.34c-2.26 0-4.1 1.9-4.1 4.24 0 .33.04.66.11.97A11.53 11.53 0 0 1 1.39 1.4a4.33 4.33 0 0 0 1.27 5.66A3.98 3.98 0 0 1 .8 6.54v.05a4.2 4.2 0 0 0 3.3 4.16 3.97 3.97 0 0 1-1.86.07 4.13 4.13 0 0 0 3.83 2.94A8.07 8.07 0 0 1 0 15.52c1.81 1.2 3.97 1.9 6.29 1.9 7.55 0 11.67-6.46 11.67-12.06v-.55c.8-.6 1.49-1.34 2.04-2.19Z" fill="#5A5A5A"/></svg>