<svg width="16" height="20" fill="none" xmlns="http://www.w3.org/2000/svg"><path fill-rule="evenodd" clip-rule="evenodd" d="M5.05 7.67H3.88V3.62L2.4.15h1.26l.75 2.58.73-2.57h1.28L5.05 3.62v4.05Zm1.42-4.7a4.4 4.4 0 0 0-.13 1.18v1.4c0 .46.02.8.07 1.04.05.23.12.43.23.59.11.16.26.28.46.37.2.08.43.12.72.12.25 0 .47-.05.67-.15.2-.09.35-.24.48-.43.12-.2.2-.41.24-.64.04-.23.06-.6.06-1.08V4.04c0-.39-.02-.68-.06-.87a1.7 1.7 0 0 0-.23-.55 1.23 1.23 0 0 0-.48-.43c-.2-.1-.45-.17-.74-.17-.34 0-.62.1-.84.26-.22.18-.37.4-.45.69Zm3.63 4.16c.05.14.14.25.27.34.11.08.27.13.45.13a.7.7 0 0 0 .43-.14c.12-.09.22-.22.3-.4l-.01.44h1.24V2.23h-.98v4.1a.4.4 0 0 1-.81 0v-4.1H9.97v3.55c0 .46 0 .76.02.91.02.15.05.3.1.44Zm5.9 9.74v-5.66c0-1.35-1.18-2.46-2.62-2.46H2.62C1.18 8.75 0 9.85 0 11.2v5.66c0 1.36 1.18 2.47 2.62 2.47h10.76c1.44 0 2.62-1.1 2.62-2.47Zm-6.42-4c-.27 0-.48.19-.48.4v2.98c0 .22.21.4.48.4s.49-.18.49-.4v-2.97c0-.22-.22-.4-.49-.4Zm3.95 1.32h-1.05v-.61c0-.27.23-.5.5-.5h.07c.27 0 .5.23.5.5l-.02.61Zm-10.2 3.3v-5.96h1.34v-.89H1.1v.87h1.11v5.98h1.12Zm2.9-5.07h1.1v5.07h-.89v-.66c-.24.51-1.2.93-1.7.57-.23-.17-.25-.45-.27-.71l-.01-.11a7.34 7.34 0 0 1 0-1.01v-3.16h1.1V16.4c.16.48.57.22.66-.03a14.13 14.13 0 0 1 0-.77v-3.18Zm4.66 3.64v-2.65c0-1-.75-1.61-1.78-.8v-1.97h-1.1L8 17.44h.91L9 17c1.17 1.07 1.9.34 1.9-.95Zm2.65-.35h.84c.38 2.26-2.81 2.63-2.82 0v-1.58c0-.47.05-.84.15-1.12.1-.27.25-.47.46-.62.68-.5 2.01-.34 2.15.61.04.3.06.82.06 1.35v.72h-1.92v1.22c0 .25.21.45.46.45h.16c.25 0 .46-.2.46-.45V15.71ZM7.31 6.25c0 .3.22.54.5.54.26 0 .49-.24.49-.54v-2.8c0-.3-.23-.55-.5-.55s-.49.24-.49.54v2.8Z" fill="#5A5A5A"/></svg>