<svg width="128" height="32" fill="none" xmlns="http://www.w3.org/2000/svg"><path opacity=".35" fill="#C9A96E" d="M0 22h125v6H0z"/><path d="M6.05 23.32a6 6 0 0 1 2.17.73V25H.5v-.95c.27-.15.55-.28.85-.4.3-.13.62-.24.95-.32V9.17a5.3 5.3 0 0 1-1.8-.73V7.5h13.07c0 .33-.01.7-.04 1.1a36.87 36.87 0 0 1-.46 3.47h-1.02L10.9 9.13H6.05v6.58h3.58l.97-1.72h.78c.11.84.16 1.72.14 2.62-.01.9-.06 1.72-.14 2.47h-.78l-.97-1.75H6.04v6ZM20.66 25H14.5v-.95a5.42 5.42 0 0 1 1.78-.73L22.7 7.2h1.85l6.28 16.13a5.7 5.7 0 0 1 1.87.72V25H24.9v-.95a11.87 11.87 0 0 1 2.07-.73l-1.45-3.97h-5.55l-1.47 3.97a6 6 0 0 1 2.17.73V25Zm-.1-7.27H25l-1.63-4.78-.47-2.15h-.05l-.55 2.2-1.73 4.73Zm18.57 5.2c.18.18.44.35.77.52.33.15.78.23 1.33.23a3.6 3.6 0 0 0 2.27-.7 2.4 2.4 0 0 0 .93-2c0-.62-.2-1.14-.6-1.55a6.3 6.3 0 0 0-1.48-1.16c-.6-.34-1.24-.69-1.92-1.02-.69-.35-1.33-.76-1.93-1.23a6.42 6.42 0 0 1-1.5-1.64 4.65 4.65 0 0 1-.57-2.4c0-.82.15-1.53.45-2.13.3-.6.7-1.1 1.22-1.47.53-.4 1.16-.7 1.88-.88.71-.2 1.49-.3 2.32-.3 1.02 0 1.96.08 2.83.22.88.14 1.67.36 2.37.65-.02.34-.05.72-.1 1.15a17.2 17.2 0 0 1-.37 2.5l-.2.93H45.8l-1.15-3.43a5.63 5.63 0 0 0-2.1-.4c-.7 0-1.3.19-1.77.56-.49.36-.73.9-.73 1.6 0 .63.2 1.17.6 1.62.4.43.9.83 1.5 1.2s1.25.73 1.95 1.1c.72.35 1.38.76 1.98 1.22.6.47 1.1 1.02 1.5 1.65.4.62.6 1.39.6 2.3a4.7 4.7 0 0 1-1.7 3.88c-1.12.9-2.77 1.35-4.95 1.35a13.49 13.49 0 0 1-4.45-.75 2.88 2.88 0 0 1-.83-.43c.02-.38.06-.79.13-1.22l.2-1.32a58.44 58.44 0 0 1 .5-2.33h1.02l1.03 3.68ZM59.72 25h-7.58v-.95a7.76 7.76 0 0 1 2.05-.73V9.18a6.47 6.47 0 0 1-2.05-.73V7.5h7.58v.95a5.09 5.09 0 0 1-1.78.73v6.04h6.63V9.18a4.39 4.39 0 0 1-1.78-.73V7.5h7.58v.95c-.29.18-.61.33-.98.45s-.72.2-1.07.28v14.14a6.42 6.42 0 0 1 2.05.73V25h-7.58v-.95c.25-.15.53-.3.83-.43.3-.13.61-.23.95-.3v-6.47h-6.63v6.47a5 5 0 0 1 1.78.73V25Zm22.18 0h-7.8v-.95c.67-.37 1.35-.6 2.03-.73V9.18a5.45 5.45 0 0 1-2.03-.73V7.5h7.8v.95a5.55 5.55 0 0 1-2.02.73v14.14c.33.07.67.16 1.02.28.37.12.7.27 1 .45V25Zm4.23-8.75c0-1.3.18-2.5.55-3.6.37-1.12.91-2.08 1.63-2.88a7.3 7.3 0 0 1 2.65-1.9 9.13 9.13 0 0 1 3.62-.67c1.37 0 2.58.22 3.63.67a7.06 7.06 0 0 1 2.62 1.9c.72.8 1.26 1.76 1.63 2.88.36 1.1.55 2.3.55 3.6 0 1.3-.19 2.5-.55 3.63a8.25 8.25 0 0 1-1.63 2.87 7.2 7.2 0 0 1-2.62 1.88 9.13 9.13 0 0 1-3.63.67 9.13 9.13 0 0 1-3.62-.68 7.43 7.43 0 0 1-4.28-4.75 11.55 11.55 0 0 1-.55-3.62Zm4.25 0c0 1.07.08 2.06.25 2.98.17.9.43 1.68.78 2.34.36.66.82 1.17 1.37 1.55.57.37 1.24.55 2.03.55a3 3 0 0 0 1.82-.55c.5-.38.91-.9 1.23-1.55a8.3 8.3 0 0 0 .67-2.34 18.45 18.45 0 0 0-.02-5.93 7.5 7.5 0 0 0-.75-2.35A3.84 3.84 0 0 0 96.4 9.4a3.45 3.45 0 0 0-2.03-.58c-.77 0-1.4.2-1.92.58a3.9 3.9 0 0 0-1.25 1.55c-.3.65-.52 1.43-.65 2.35-.12.9-.18 1.88-.18 2.95Zm28.37-8.75h6.2v.95a6.7 6.7 0 0 1-2.12 1.1V25.3h-2.13l-8.82-12.75-1-1.93h-.08l.23 2v10.43c.33.08.7.22 1.1.43.42.18.77.37 1.05.57V25H107v-.95a7.8 7.8 0 0 1 2.1-1V9.4c-.33-.13-.66-.28-1-.45a7.6 7.6 0 0 1-.9-.52V7.5h5.4l7.18 10.4 1.15 2.15h.1l-.13-2.15V9.55a7.53 7.53 0 0 1-2.15-1.1V7.5Z" fill="#171717"/></svg>